<?xml version="1.0" encoding="utf-8"?>
<!-- Generator: Adobe Illustrator 21.1.0, SVG Export Plug-In . SVG Version: 6.00 Build 0)  -->
<svg version="1.1" id="Livello_1" xmlns="http://www.w3.org/2000/svg" xmlns:xlink="http://www.w3.org/1999/xlink" x="0px" y="0px"
	 viewBox="0 0 180 280" style="enable-background:new 0 0 180 280;" xml:space="preserve">
<style type="text/css">
	.st0{fill:#2B2423;}
	.st1{fill:#53352D;}
	.st2{fill:#E6E6E6;}
	.st3{fill:#F9F9F9;}
	.st4{fill:#CC0000;}
	.st5{filter:url(#Adobe_OpacityMaskFilter);}
	.st6{opacity:0.3;mask:url(#SVGID_1_);}
	.st7{fill:#993333;}
	.st8{filter:url(#Adobe_OpacityMaskFilter_1_);}
	.st9{opacity:0.3;mask:url(#SVGID_2_);}
	.st10{fill:#FFFFFF;}
	.st11{fill:#9966CC;}
	.st12{filter:url(#Adobe_OpacityMaskFilter_2_);}
	.st13{opacity:0.3;mask:url(#SVGID_3_);}
	.st14{fill:none;stroke:#FFFFFF;stroke-width:5;stroke-miterlimit:10;}
	.st15{fill:#606060;}
	.st16{fill:#999999;}
	.st17{fill:none;stroke:#CCCCCC;stroke-width:3;stroke-miterlimit:10;}
	.st18{fill:none;stroke:#999999;stroke-miterlimit:10;}
	.st19{fill:#66BD88;}
	.st20{filter:url(#Adobe_OpacityMaskFilter_3_);}
	.st21{opacity:0.3;mask:url(#SVGID_4_);}
	.st22{fill:#FFC20F;}
	.st23{filter:url(#Adobe_OpacityMaskFilter_4_);}
	.st24{opacity:0.3;mask:url(#SVGID_5_);}
	.st25{filter:url(#Adobe_OpacityMaskFilter_5_);}
	.st26{opacity:0.3;mask:url(#SVGID_6_);}
	.st27{fill:none;stroke:#534741;stroke-width:4;stroke-miterlimit:10;}
	.st28{filter:url(#Adobe_OpacityMaskFilter_6_);}
	.st29{opacity:0.3;mask:url(#SVGID_7_);}
	.st30{fill:none;stroke:#1A1A1A;stroke-width:3;stroke-miterlimit:10;}
	.st31{filter:url(#Adobe_OpacityMaskFilter_7_);}
	.st32{opacity:0.3;mask:url(#SVGID_8_);}
	.st33{filter:url(#Adobe_OpacityMaskFilter_8_);}
	.st34{opacity:0.3;mask:url(#SVGID_9_);}
	.st35{fill:#4D4D4D;}
	.st36{fill:none;stroke:#FF00FF;stroke-width:2;stroke-miterlimit:10;}
	.st37{fill:#1A1A1A;}
	.st38{opacity:0.5;}
	.st39{fill:none;stroke:#CCCCCC;stroke-width:2;stroke-linejoin:round;stroke-miterlimit:10;}
</style>
<rect x="-2" y="-2" class="st16" width="184" height="286"/>
<g class="st38">
	<path d="M48.3,76.4c0.4,0,0.8,0.6,1.1,1.8c0.4,0.9,2.5,6.6,6.5,17.4H56V77.2c0-0.5,0.2-0.7,0.7-0.7c0.4,0,0.6,0.2,0.6,0.7v22.3
		c0,0.5-0.2,0.7-0.7,0.7c-0.4,0-0.8-0.6-1.1-1.8C55.2,97.6,53,91.8,49,81h-0.1v18.4c0,0.5-0.2,0.7-0.7,0.7c-0.4,0-0.6-0.2-0.6-0.7
		V77.2C47.6,76.7,47.8,76.4,48.3,76.4z"/>
	<path d="M65.2,86.6h0.1c2.5,0,4.1,1.4,4.9,4.1c0.2,1,0.3,1.6,0.3,2v0.1c0,0.5-0.2,0.7-0.7,0.7h-8.2v0.5c0,2.4,1,3.9,3.1,4.4
		c0.7,0.2,1.4,0.3,2.1,0.3H67c0.3,0,1-0.1,1.9-0.2c0.4,0,0.6,0.2,0.6,0.7c0,0.5-0.5,0.8-1.6,0.8c0,0.1-0.2,0.1-0.6,0.1h-0.7
		c-2.9,0-4.9-1.1-5.9-3.4c-0.3-0.9-0.4-1.6-0.4-2.3v-0.1c0-3.9,1.1-6.3,3.3-7.3C64.2,86.8,64.7,86.6,65.2,86.6z M61.7,92.2
		c0,0.1,0,0.1,0,0.1h7.4C68.9,91,68.5,90,68,89.2c-0.7-0.8-1.6-1.2-2.7-1.2c-1,0-1.8,0.4-2.5,1.3c-0.6,0.9-0.9,1.7-1,2.7
		C61.7,92.1,61.7,92.2,61.7,92.2z"/>
	<path d="M77.9,86.6c2.1,0.1,3.1,0.2,3.1,0.5c0.1,0.1,0.1,0.2,0.1,0.4c0,0.4-0.2,0.6-0.7,0.6c-1.1-0.2-1.9-0.2-2.5-0.2
		c-2.2,0-3.6,0.5-4.2,1.5c-0.1,0.4-0.1,0.7-0.1,0.8v0c0,0.9,0.8,1.6,2.3,1.9c2.5,0.6,4.1,1.1,4.8,1.6c0.8,0.6,1.3,1.5,1.3,2.6
		c0,1.8-1.2,3-3.6,3.5c-0.7,0.1-1.4,0.2-2.1,0.2h-0.1c-2.2,0-3.4-0.2-3.4-0.6c0,0-0.1-0.1-0.1-0.3c0-0.4,0.2-0.6,0.7-0.6
		c1.3,0.1,2.2,0.2,2.8,0.2c2.2,0,3.6-0.5,4.2-1.5c0.1-0.3,0.2-0.6,0.2-0.9c0-1.2-1-1.9-3-2.4c-2.4-0.5-3.8-1-4.3-1.5
		c-0.8-0.6-1.1-1.3-1.1-2.1V90c0-1.2,0.8-2.2,2.4-2.9C75.4,86.8,76.6,86.6,77.9,86.6z"/>
	<path d="M88.3,86.6c2.1,0.1,3.1,0.2,3.1,0.5c0.1,0.1,0.1,0.2,0.1,0.4c0,0.4-0.2,0.6-0.7,0.6c-1.1-0.2-1.9-0.2-2.5-0.2
		c-2.2,0-3.6,0.5-4.2,1.5c-0.1,0.4-0.1,0.7-0.1,0.8v0c0,0.9,0.8,1.6,2.3,1.9c2.5,0.6,4.1,1.1,4.8,1.6c0.8,0.6,1.3,1.5,1.3,2.6
		c0,1.8-1.2,3-3.6,3.5c-0.7,0.1-1.4,0.2-2.1,0.2h-0.1c-2.2,0-3.4-0.2-3.4-0.6c0,0-0.1-0.1-0.1-0.3c0-0.4,0.2-0.6,0.7-0.6
		c1.3,0.1,2.2,0.2,2.8,0.2c2.2,0,3.6-0.5,4.2-1.5c0.1-0.3,0.2-0.6,0.2-0.9c0-1.2-1-1.9-3-2.4c-2.4-0.5-3.8-1-4.3-1.5
		c-0.8-0.6-1.1-1.3-1.1-2.1V90c0-1.2,0.8-2.2,2.4-2.9C85.8,86.8,86.9,86.6,88.3,86.6z"/>
	<path d="M94.6,86.6c0.4,0,0.6,0.2,0.6,0.7V94c0,2.1,0.7,3.6,2,4.4c0.6,0.3,1.1,0.4,1.5,0.4h0.2c1.6,0,2.7-1,3.2-3.1
		c0.1-0.8,0.1-1.3,0.1-1.7v-6.6c0-0.5,0.2-0.7,0.7-0.7c0.4,0,0.6,0.2,0.6,0.7v11.9c0,0.5-0.2,0.7-0.7,0.7c-0.4,0-0.6-0.2-0.6-0.7
		v-0.6h-0.1c-0.9,1-1.9,1.4-3,1.4h-0.7c-1.5,0-2.8-0.8-3.8-2.4c-0.6-1-0.8-2.2-0.8-3.5v-6.9C93.9,86.9,94.1,86.6,94.6,86.6z"/>
	<path d="M112.3,86.6h0.7c1.3,0,2.5,0.6,3.4,1.9c0.8,1.1,1.2,2.6,1.2,4.6v6.3c0,0.5-0.2,0.7-0.7,0.7c-0.4,0-0.6-0.2-0.6-0.7v-6.1
		c0-2.9-0.8-4.6-2.4-5.2c-0.2-0.1-0.6-0.1-1.1-0.2h-0.1c-1.3,0-2.2,0.6-2.8,1.9c-0.4,0.9-0.5,1.8-0.5,2.6v6.9c0,0.5-0.2,0.7-0.7,0.7
		c-0.4,0-0.6-0.2-0.6-0.7V87.5c0-0.5,0.2-0.7,0.7-0.7c0.4,0,0.6,0.2,0.6,0.7v0.6h0C110.2,87.1,111.2,86.6,112.3,86.6z"/>
	<path d="M125.1,86.6h0.6c1.3,0,2.5,0.5,3.5,1.6h0v-0.8c0-0.5,0.2-0.7,0.7-0.7c0.4,0,0.6,0.2,0.6,0.7v12c0,0.5-0.2,0.7-0.7,0.7
		c-0.4,0-0.6-0.2-0.6-0.7v-1h-0.1c-1,1.2-2.1,1.8-3.5,1.8h-0.4c-2.1,0-3.5-1-4.4-3.1c-0.4-0.9-0.5-2.1-0.5-3.6v0
		c0-3.5,1.1-5.7,3.3-6.5C124.2,86.7,124.7,86.6,125.1,86.6z M121.6,93.5c0,3.6,1.3,5.4,3.8,5.4c2,0,3.3-1.4,3.7-4.1
		c0.1-0.4,0.1-0.8,0.1-1.2c0-3.7-1.3-5.6-3.8-5.6h-0.1C122.9,88,121.6,89.8,121.6,93.5z"/>
	<path d="M40.9,124.7L40.9,124.7c0.5,0.1,0.8,0.3,0.8,0.7v0.1c-0.1,0.5-0.3,0.7-0.7,0.7h-0.1c-0.5-0.1-0.7-0.3-0.7-0.7v-0.1
		C40.2,124.9,40.5,124.7,40.9,124.7z M40.9,127.4c0.4,0,0.6,0.2,0.6,0.7v12c0,0.5-0.2,0.7-0.7,0.7c-0.4,0-0.6-0.2-0.6-0.7v-12
		C40.2,127.7,40.5,127.4,40.9,127.4z"/>
	<path d="M49.5,127.4h0.6c1.2,0,2.2,0.8,3.1,2.3c0.8-1.5,1.9-2.3,3-2.3h0.6c1.4,0,2.5,1,3.4,3c0.3,0.9,0.4,2,0.4,3.2v6.6
		c0,0.5-0.2,0.7-0.7,0.7c-0.4,0-0.6-0.2-0.6-0.7v-6.4c0-2.5-0.6-4.2-1.8-4.8c-0.3-0.2-0.6-0.2-0.9-0.2h-0.1c-1.3,0-2.1,1.1-2.5,3.2
		c-0.1,0.6-0.1,1-0.1,1.3v6.9c0,0.5-0.2,0.7-0.7,0.7c-0.4,0-0.6-0.2-0.6-0.7v-6.4c0-2.5-0.6-4.2-1.8-4.8c-0.3-0.2-0.6-0.2-0.9-0.2
		h-0.1c-1.4,0-2.2,1.2-2.5,3.7c0,0.4,0,0.8,0,1.2v6.6c0,0.5-0.2,0.7-0.7,0.7c-0.4,0-0.6-0.2-0.6-0.7v-11.9c0-0.5,0.2-0.7,0.7-0.7
		c0.4,0,0.6,0.2,0.6,0.7v0.2h0.1C48,127.8,48.8,127.4,49.5,127.4z"/>
	<path d="M68,127.4h0.6c1.2,0,2.2,0.8,3.1,2.3c0.8-1.5,1.9-2.3,3-2.3h0.6c1.4,0,2.5,1,3.4,3c0.3,0.9,0.4,2,0.4,3.2v6.6
		c0,0.5-0.2,0.7-0.7,0.7c-0.4,0-0.6-0.2-0.6-0.7v-6.4c0-2.5-0.6-4.2-1.8-4.8c-0.3-0.2-0.6-0.2-0.9-0.2h-0.1c-1.3,0-2.1,1.1-2.5,3.2
		c-0.1,0.6-0.1,1-0.1,1.3v6.9c0,0.5-0.2,0.7-0.7,0.7c-0.4,0-0.6-0.2-0.6-0.7v-6.4c0-2.5-0.6-4.2-1.8-4.8c-0.3-0.2-0.6-0.2-0.9-0.2
		h-0.1c-1.4,0-2.2,1.2-2.5,3.7c0,0.4,0,0.8,0,1.2v6.6c0,0.5-0.2,0.7-0.7,0.7c-0.4,0-0.6-0.2-0.6-0.7v-11.9c0-0.5,0.2-0.7,0.7-0.7
		c0.4,0,0.6,0.2,0.6,0.7v0.2h0.1C66.5,127.8,67.2,127.4,68,127.4z"/>
	<path d="M86.7,127.4h0.6c1.3,0,2.5,0.5,3.5,1.6h0v-0.8c0-0.5,0.2-0.7,0.7-0.7c0.4,0,0.6,0.2,0.6,0.7v12c0,0.5-0.2,0.7-0.7,0.7
		c-0.4,0-0.6-0.2-0.6-0.7v-1h-0.1c-1,1.2-2.1,1.8-3.5,1.8h-0.4c-2.1,0-3.5-1-4.4-3.1c-0.4-0.9-0.5-2.1-0.5-3.6v0
		c0-3.5,1.1-5.7,3.3-6.5C85.8,127.5,86.3,127.4,86.7,127.4z M83.2,134.3c0,3.6,1.3,5.4,3.8,5.4c2,0,3.3-1.4,3.7-4.1
		c0.1-0.4,0.1-0.8,0.1-1.2c0-3.7-1.3-5.6-3.8-5.6H87C84.5,128.8,83.2,130.6,83.2,134.3z"/>
	<path d="M100,127.4h0.6c1.3,0,2.5,0.5,3.5,1.6h0v-0.7c0-0.5,0.2-0.7,0.7-0.7c0.4,0,0.6,0.2,0.6,0.7v14.1c0,2.8-1,4.6-3,5.6
		c-0.6,0.2-1.1,0.3-1.4,0.3h-0.5c-2.2,0-3.7-0.9-4.5-2.8c-0.2-0.5-0.3-1-0.3-1.6c0-0.4,0.2-0.6,0.7-0.7c0.4,0,0.7,0.4,0.7,1.3
		c0.3,0.9,0.7,1.5,1.2,1.8c0.6,0.4,1.4,0.6,2.5,0.6c1,0,1.8-0.5,2.4-1.4c0.5-0.9,0.8-2.1,0.8-3.4v-3H104c-1,1.2-2.1,1.8-3.5,1.8
		h-0.4c-2.1,0-3.5-1-4.4-3.1c-0.4-0.9-0.5-2.1-0.5-3.6v0c0-3.5,1.1-5.7,3.3-6.5C99.1,127.5,99.6,127.4,100,127.4z M96.5,134.3
		c0,3.6,1.3,5.4,3.8,5.4c2,0,3.3-1.4,3.7-4.1c0.1-0.4,0.1-0.8,0.1-1.2c0-3.7-1.3-5.6-3.8-5.6h-0.1C97.8,128.8,96.5,130.6,96.5,134.3
		z"/>
	<path d="M110.5,124.7L110.5,124.7c0.5,0.1,0.8,0.3,0.8,0.7v0.1c-0.1,0.5-0.3,0.7-0.7,0.7h-0.1c-0.5-0.1-0.7-0.3-0.7-0.7v-0.1
		C109.8,124.9,110.1,124.7,110.5,124.7z M110.5,127.4c0.4,0,0.6,0.2,0.6,0.7v12c0,0.5-0.2,0.7-0.7,0.7c-0.4,0-0.6-0.2-0.6-0.7v-12
		C109.8,127.7,110.1,127.4,110.5,127.4z"/>
	<path d="M119.9,127.4h0.7c1.3,0,2.5,0.6,3.4,1.9c0.8,1.1,1.2,2.6,1.2,4.6v6.3c0,0.5-0.2,0.7-0.7,0.7c-0.4,0-0.6-0.2-0.6-0.7v-6.1
		c0-2.9-0.8-4.6-2.4-5.2c-0.2-0.1-0.6-0.1-1.1-0.2h-0.1c-1.3,0-2.2,0.6-2.8,1.9c-0.4,0.9-0.5,1.8-0.5,2.6v6.9c0,0.5-0.2,0.7-0.7,0.7
		c-0.4,0-0.6-0.2-0.6-0.7v-11.9c0-0.5,0.2-0.7,0.7-0.7c0.4,0,0.6,0.2,0.6,0.7v0.6h0C117.8,127.9,118.8,127.4,119.9,127.4z"/>
	<path d="M132.8,127.4h0.1c2.5,0,4.1,1.4,4.9,4.1c0.2,1,0.3,1.6,0.3,2v0.1c0,0.5-0.2,0.7-0.7,0.7h-8.2v0.5c0,2.4,1,3.9,3.1,4.4
		c0.7,0.2,1.4,0.3,2.1,0.3h0.2c0.3,0,1-0.1,1.9-0.2c0.4,0,0.6,0.2,0.6,0.7c0,0.5-0.5,0.8-1.6,0.8c0,0.1-0.2,0.1-0.6,0.1h-0.7
		c-2.9,0-4.9-1.1-5.9-3.4c-0.3-0.9-0.4-1.6-0.4-2.3v-0.1c0-3.9,1.1-6.3,3.3-7.3C131.9,127.6,132.4,127.4,132.8,127.4z M129.4,133
		c0,0.1,0,0.1,0,0.1h7.4c-0.2-1.3-0.6-2.3-1.1-3.1c-0.7-0.8-1.6-1.2-2.7-1.2c-1,0-1.8,0.4-2.5,1.3c-0.6,0.9-0.9,1.7-1,2.7
		C129.4,132.9,129.4,133,129.4,133z"/>
	<path d="M43.7,159.5c0.4,0,0.6,0.2,0.6,0.7V181c0,0.5-0.2,0.7-0.7,0.7c-0.4,0-0.6-0.2-0.6-0.7v-0.8H43c-0.9,1-2.1,1.5-3.5,1.5H39
		c-1.7,0-3.1-0.9-4.2-2.8c-0.5-1.2-0.8-2.4-0.8-3.5V175c0-3.5,1.1-5.6,3.3-6.5c0.7-0.2,1.2-0.3,1.6-0.3h0.6c1.3,0,2.4,0.5,3.4,1.5
		H43v-9.5C43,159.8,43.3,159.5,43.7,159.5z M35.4,175.2c0,1.6,0.5,3,1.4,4.2c0.7,0.7,1.5,1,2.4,1c2.5,0,3.8-1.8,3.8-5.4
		c0-3.6-1.2-5.4-3.7-5.4h-0.1c-1.5,0-2.6,0.7-3.2,2.1C35.6,172.5,35.4,173.7,35.4,175.2z"/>
	<path d="M49.7,165.5L49.7,165.5c0.5,0.1,0.8,0.3,0.8,0.7v0.1c-0.1,0.5-0.3,0.7-0.7,0.7h-0.1c-0.5-0.1-0.7-0.3-0.7-0.7v-0.1
		C49,165.7,49.3,165.5,49.7,165.5z M49.7,168.2c0.4,0,0.6,0.2,0.6,0.7v12c0,0.5-0.2,0.7-0.7,0.7c-0.4,0-0.6-0.2-0.6-0.7v-12
		C49,168.5,49.3,168.2,49.7,168.2z"/>
	<path d="M58.7,168.2c2.1,0.1,3.1,0.2,3.1,0.5c0.1,0.1,0.1,0.2,0.1,0.4c0,0.4-0.2,0.6-0.7,0.6c-1.1-0.2-1.9-0.2-2.5-0.2
		c-2.2,0-3.6,0.5-4.2,1.5c-0.1,0.4-0.1,0.7-0.1,0.8v0c0,0.9,0.8,1.6,2.3,1.9c2.5,0.6,4.1,1.1,4.8,1.6c0.8,0.6,1.3,1.5,1.3,2.6
		c0,1.8-1.2,3-3.6,3.5c-0.7,0.1-1.4,0.2-2.1,0.2h-0.1c-2.2,0-3.4-0.2-3.4-0.6c0,0-0.1-0.1-0.1-0.3c0-0.4,0.2-0.6,0.7-0.6
		c1.3,0.1,2.2,0.2,2.8,0.2c2.2,0,3.6-0.5,4.2-1.5c0.1-0.3,0.2-0.6,0.2-0.9c0-1.2-1-1.9-3-2.4c-2.4-0.5-3.8-1-4.3-1.5
		c-0.8-0.6-1.1-1.3-1.1-2.1v-0.5c0-1.2,0.8-2.2,2.4-2.9C56.2,168.4,57.3,168.2,58.7,168.2z"/>
	<path d="M65.7,168.3c0.4,0,0.6,0.2,0.6,0.7v0.8h0.1c0.9-1,2.1-1.5,3.5-1.5h0.4c1.7,0,3.1,0.9,4.2,2.8c0.5,1.2,0.8,2.4,0.8,3.5v0.5
		c0,3.5-1.1,5.6-3.3,6.5c-0.7,0.2-1.2,0.2-1.6,0.2h-0.6c-1.3,0-2.4-0.5-3.4-1.5h-0.1v9.5c0,0.5-0.2,0.7-0.7,0.7
		c-0.4,0-0.6-0.2-0.6-0.7v-20.8C65,168.6,65.2,168.3,65.7,168.3z M66.3,175.1c0,3.6,1.2,5.4,3.7,5.4h0.1c1.5,0,2.6-0.7,3.2-2
		c0.4-0.8,0.6-2,0.6-3.6c0-1.6-0.5-3-1.4-4.2c-0.7-0.6-1.5-1-2.4-1C67.6,169.7,66.3,171.5,66.3,175.1z"/>
	<path d="M82.8,168.2h0.4c2.1,0,3.6,1,4.4,3.1c0.3,0.9,0.5,2.1,0.5,3.6v0c0,3.5-1.1,5.7-3.3,6.5c-0.7,0.2-1.2,0.3-1.6,0.3h-0.6
		c-1.7,0-3.1-0.8-4-2.4c-0.6-1-0.9-2.4-0.9-4.3v-0.5c0-1.6,0.5-3.1,1.4-4.5C80.3,168.9,81.5,168.2,82.8,168.2z M79.2,174.9
		c0,3.7,1.3,5.6,3.8,5.6h0.1c2.5,0,3.7-1.8,3.7-5.5c0-3.6-1.3-5.4-3.8-5.4c-2,0-3.3,1.4-3.7,4.1C79.3,174.1,79.2,174.5,79.2,174.9z"
		/>
	<path d="M95.5,168.2h0.7c1.3,0,2.5,0.6,3.4,1.9c0.8,1.1,1.2,2.6,1.2,4.6v6.3c0,0.5-0.2,0.7-0.7,0.7c-0.4,0-0.6-0.2-0.6-0.7V175
		c0-2.9-0.8-4.6-2.4-5.2c-0.2-0.1-0.6-0.1-1.1-0.2h-0.1c-1.3,0-2.2,0.6-2.8,1.9c-0.4,0.9-0.5,1.8-0.5,2.6v6.9c0,0.5-0.2,0.7-0.7,0.7
		c-0.4,0-0.6-0.2-0.6-0.7v-11.9c0-0.5,0.2-0.7,0.7-0.7c0.4,0,0.6,0.2,0.6,0.7v0.6h0C93.4,168.7,94.4,168.2,95.5,168.2z"/>
	<path d="M105.1,165.5L105.1,165.5c0.5,0.1,0.8,0.3,0.8,0.7v0.1c-0.1,0.5-0.3,0.7-0.7,0.7h-0.1c-0.5-0.1-0.7-0.3-0.7-0.7v-0.1
		C104.5,165.7,104.7,165.5,105.1,165.5z M105.2,168.2c0.4,0,0.6,0.2,0.6,0.7v12c0,0.5-0.2,0.7-0.7,0.7c-0.4,0-0.6-0.2-0.6-0.7v-12
		C104.5,168.5,104.7,168.2,105.2,168.2z"/>
	<path d="M111.2,159.5c0.4,0,0.6,0.2,0.6,0.7v9.5h0.1c1-1,2.1-1.5,3.4-1.5h0.6c1.7,0,3,0.8,4,2.4c0.6,1,0.9,2.5,0.9,4.3v0.5
		c0,1.6-0.5,3.1-1.4,4.5c-1,1.2-2.2,1.8-3.6,1.8h-0.4c-1.4,0-2.6-0.5-3.5-1.5h-0.1v0.8c0,0.5-0.2,0.7-0.7,0.7
		c-0.4,0-0.6-0.2-0.6-0.7v-20.8C110.5,159.8,110.7,159.5,111.2,159.5z M111.8,175.1c0,3.6,1.3,5.4,3.8,5.4c2,0,3.3-1.4,3.7-4.1
		c0.1-0.4,0.1-0.8,0.1-1.2c0-3.7-1.3-5.6-3.8-5.6h-0.1C113,169.6,111.8,171.4,111.8,175.1z"/>
	<path d="M124.3,165.5L124.3,165.5c0.5,0.1,0.8,0.3,0.8,0.7v0.1c-0.1,0.5-0.3,0.7-0.7,0.7h-0.1c-0.5-0.1-0.7-0.3-0.7-0.7v-0.1
		C123.7,165.7,124,165.5,124.3,165.5z M124.4,168.2c0.4,0,0.6,0.2,0.6,0.7v12c0,0.5-0.2,0.7-0.7,0.7c-0.4,0-0.6-0.2-0.6-0.7v-12
		C123.7,168.5,124,168.2,124.4,168.2z"/>
	<path d="M130.4,159.5c0.4,0,0.6,0.2,0.6,0.7V181c0,0.5-0.2,0.7-0.7,0.7c-0.4,0-0.6-0.2-0.6-0.7v-20.8
		C129.7,159.8,129.9,159.5,130.4,159.5z"/>
	<path d="M138.9,168.2h0.1c2.5,0,4.1,1.4,4.9,4.1c0.2,1,0.3,1.6,0.3,2v0.1c0,0.5-0.2,0.7-0.7,0.7h-8.2v0.5c0,2.4,1,3.9,3.1,4.4
		c0.7,0.2,1.4,0.3,2.1,0.3h0.2c0.3,0,1-0.1,1.9-0.2c0.4,0,0.6,0.2,0.6,0.7c0,0.5-0.5,0.8-1.6,0.8c0,0.1-0.2,0.1-0.6,0.1h-0.7
		c-2.9,0-4.9-1.1-5.9-3.4c-0.3-0.9-0.4-1.6-0.4-2.3v-0.1c0-3.9,1.1-6.3,3.3-7.3C138,168.4,138.5,168.2,138.9,168.2z M135.5,173.8
		c0,0.1,0,0.1,0,0.1h7.4c-0.2-1.3-0.6-2.3-1.1-3.1c-0.7-0.8-1.6-1.2-2.7-1.2c-1,0-1.8,0.4-2.5,1.3c-0.6,0.9-0.9,1.7-1,2.7
		C135.5,173.7,135.5,173.8,135.5,173.8z"/>
</g>
<rect x="12" y="12" class="st39" width="154" height="255"/>
</svg>
